<?xml version="1.0" standalone="no"?>
<!DOCTYPE svg PUBLIC "-//W3C//DTD SVG 20010904//EN"
 "http://www.w3.org/TR/2001/REC-SVG-20010904/DTD/svg10.dtd">
<svg version="1.0" xmlns="http://www.w3.org/2000/svg"
 width="176.000000pt" height="176.000000pt" viewBox="0 0 176.000000 176.000000"
 preserveAspectRatio="xMidYMid meet">

<g transform="translate(0.000000,176.000000) scale(0.100000,-0.100000)"
fill="" stroke="">
<path d="M773 1710 c-354 -49 -630 -300 -715 -650 -19 -79 -16 -288 5 -375 36
-145 132 -307 241 -408 368 -340 948 -289 1245 112 101 136 150 275 158 453
10 198 -37 362 -147 523 -39 57 -161 174 -223 213 -162 105 -384 157 -564 132z
m115 -100 c27 -26 28 -40 1 -74 -14 -17 -30 -26 -50 -26 -33 0 -39 -16 -8 -25
31 -10 17 -30 -23 -33 l-35 -3 5 70 c3 49 1 71 -7 71 -15 0 -14 27 2 33 37 12
94 6 115 -13z m275 -11 c35 -48 -4 -129 -62 -129 -32 0 -45 8 -60 37 -17 34
-13 59 15 93 33 39 77 39 107 -1z m-429 -21 c9 -12 16 -32 16 -44 0 -23 -42
-64 -65 -64 -25 0 -65 41 -65 67 0 59 81 88 114 41z m-158 -35 c27 -36 12 -71
-16 -38 -18 21 -23 13 -11 -18 7 -19 15 -24 30 -20 34 9 25 -23 -11 -41 -31
-16 -58 -21 -58 -11 0 3 5 14 12 24 9 15 9 23 -1 35 -19 23 -29 20 -23 -9 6
-34 -14 -32 -33 4 l-15 30 53 30 c62 36 57 35 73 14z m703 3 c13 -7 32 -11 43
-8 24 6 23 -15 -2 -30 -13 -8 -20 -24 -20 -42 0 -59 -59 -87 -100 -46 -33 33
-20 88 30 127 19 15 20 15 49 -1z m-846 -101 c4 -8 2 -17 -3 -20 -21 -13 -8
-25 26 -25 28 0 35 -3 32 -17 -3 -14 -12 -17 -41 -16 -20 1 -37 -2 -37 -7 0
-5 7 -7 15 -4 21 9 19 -25 -2 -42 -25 -19 -31 -17 -35 8 -2 13 -15 29 -30 36
-36 17 -35 38 1 56 16 9 31 22 34 31 8 19 33 20 40 0z m948 -11 c18 -16 18
-18 -2 -43 -24 -30 -8 -42 21 -16 16 15 22 15 35 5 28 -24 15 -36 -60 -53 -83
-19 -108 -15 -103 17 4 26 35 34 40 9 3 -16 5 -16 16 4 7 12 13 35 14 50 3 48
10 53 39 27z m-316 -40 c317 -110 461 -461 314 -762 -167 -342 -614 -416 -885
-147 -109 109 -164 237 -164 385 0 228 137 430 349 516 121 49 259 52 386 8z
m-721 -85 c31 -25 34 -61 6 -89 -29 -29 -62 -30 -92 -3 -34 31 -17 88 32 106
24 9 26 8 54 -14z m1167 -34 l23 -43 -31 -31 c-17 -17 -38 -31 -46 -31 -17 0
-77 76 -77 98 0 9 7 13 18 10 21 -6 45 9 55 34 10 26 32 12 58 -37z m-1321
-74 c0 -12 69 -35 99 -33 24 2 51 -13 51 -29 0 -5 -8 -9 -19 -9 -26 0 -48 -54
-31 -75 8 -10 9 -19 4 -24 -13 -13 -54 6 -54 23 0 21 -44 49 -78 48 -39 0 -42
5 -28 41 7 17 16 40 19 50 7 17 37 24 37 8z m1378 -33 c7 -7 12 -21 12 -31 0
-15 -5 -18 -25 -13 -15 4 -25 2 -25 -4 0 -6 14 -13 30 -17 30 -5 58 -38 45
-51 -3 -4 -22 -7 -41 -8 -21 0 -40 -8 -48 -19 -13 -18 -14 -18 -25 4 -18 32
-8 49 26 45 24 -4 22 -1 -13 15 -41 19 -61 45 -44 56 6 4 14 4 19 0 11 -6 61
15 61 27 0 12 14 10 28 -4z m-1371 -472 c-6 -15 12 -26 44 -26 28 0 23 -17 -8
-28 -24 -9 -25 -11 -6 -11 37 -2 53 -12 53 -36 0 -13 -7 -26 -16 -29 -12 -5
-14 -9 -5 -20 15 -18 68 -18 75 0 4 11 10 12 30 2 26 -11 27 -32 1 -22 -8 4
-20 -6 -29 -25 -21 -40 -21 -39 17 -43 28 -3 32 -7 33 -33 0 -33 6 -38 29 -29
23 9 47 -16 42 -43 -4 -21 -1 -23 22 -19 37 8 55 -6 47 -38 -5 -20 -3 -24 9
-20 8 4 15 10 15 15 0 14 23 11 59 -7 26 -13 32 -21 28 -40 -5 -26 7 -32 20
-11 14 23 40 27 57 8 9 -10 16 -23 16 -29 0 -17 20 -15 26 3 9 23 55 19 61 -5
6 -23 23 -27 23 -5 0 8 5 15 10 15 6 0 10 -11 10 -25 0 -14 5 -25 10 -25 6 0
10 11 10 25 0 14 5 25 10 25 6 0 10 -9 10 -20 0 -11 7 -20 15 -20 8 0 15 -4
15 -9 0 -21 -68 -29 -87 -10 -7 7 -20 8 -34 3 -13 -4 -27 -7 -31 -6 -3 1 -9
-12 -13 -28 -10 -46 -26 -36 -19 11 l7 40 -35 -6 c-25 -5 -39 -2 -51 9 -8 9
-25 16 -38 16 -19 0 -21 4 -15 30 6 33 -9 42 -19 10 -3 -11 -13 -20 -21 -20
-11 0 -12 4 -4 19 19 36 9 46 -15 16 -14 -16 -25 -25 -25 -19 0 7 -11 15 -25
18 -14 4 -32 17 -41 31 -8 13 -32 29 -51 36 -31 10 -37 9 -45 -5 -5 -9 -16
-16 -24 -16 -12 0 -9 8 11 31 l26 32 -31 18 c-17 11 -34 27 -37 37 -4 9 -20
29 -36 45 -17 15 -27 33 -24 42 4 8 -6 27 -23 44 -17 16 -30 39 -30 50 0 11
-5 23 -11 27 -7 4 -8 9 0 17 7 7 5 14 -6 23 -15 10 -15 14 -4 28 17 20 25 21
18 2z m1379 -11 c6 -24 4 -35 -15 -65 -5 -8 -12 -23 -15 -33 -5 -15 -9 -16
-27 -7 -30 17 -38 1 -10 -21 28 -23 22 -36 -9 -19 -32 17 -39 2 -10 -20 28
-22 14 -26 -25 -8 -27 12 -27 31 3 76 12 18 21 22 41 17 25 -6 25 -6 7 13 -25
28 -18 67 12 66 12 0 22 5 22 13 0 23 19 14 26 -12z m-128 -197 c9 -9 12 -9
12 0 0 7 5 12 10 12 6 0 10 -10 10 -21 0 -16 -5 -20 -20 -16 -23 6 -38 -12
-20 -23 14 -8 10 -14 -37 -66 -19 -20 -26 -23 -43 -14 -12 6 -20 21 -20 35 0
29 27 47 52 34 19 -10 26 5 8 16 -14 9 -12 25 3 23 6 -2 11 5 11 15 -2 20 16
23 34 5z m-132 -133 c4 -10 13 -13 25 -10 11 4 19 2 19 -3 0 -15 -28 -34 -40
-27 -5 3 -10 -1 -10 -9 0 -9 -6 -16 -14 -16 -8 0 -16 -7 -20 -15 -3 -8 -13
-15 -23 -15 -10 0 -24 -9 -31 -21 -10 -15 -20 -19 -36 -15 -17 4 -31 -2 -50
-19 -23 -21 -26 -31 -21 -56 11 -47 -10 -27 -29 28 -24 69 -21 83 13 83 17 0
33 -6 37 -12 6 -9 10 -5 14 11 7 30 31 46 55 37 16 -6 16 -8 0 -34 l-16 -27
25 28 c15 16 31 25 38 21 8 -5 9 3 5 29 -6 37 8 52 19 22 9 -22 26 -7 19 16
-7 23 13 26 21 4z m-316 -140 c5 -14 17 -25 27 -25 35 0 -7 -24 -47 -27 -30
-2 -40 1 -40 12 0 10 6 12 18 8 15 -6 15 -5 3 10 -7 9 -11 24 -7 32 9 23 35
18 46 -10z"/>
<path d="M822 1588 c-18 -18 -14 -36 9 -43 30 -10 57 18 39 39 -15 19 -32 20
-48 4z"/>
<path d="M1074 1575 c-14 -21 -15 -31 -5 -51 15 -33 51 -29 69 8 27 57 -30 94
-64 43z"/>
<path d="M660 1555 c-16 -19 -6 -45 18 -45 29 0 48 26 32 45 -16 19 -34 19
-50 0z"/>
<path d="M1214 1475 c-4 -9 0 -23 9 -32 21 -21 49 -9 45 19 -4 28 -45 38 -54
13z"/>
<path d="M717 1323 c-4 -3 -7 -42 -7 -85 l0 -78 -30 0 c-23 0 -33 -6 -40 -25
-5 -14 -20 -39 -32 -55 -21 -30 -23 -30 -115 -30 l-93 0 0 -170 0 -169 132 -3
133 -3 12 -38 c7 -20 18 -87 25 -147 l12 -110 183 0 183 0 0 40 c0 22 5 40 11
40 21 0 157 68 178 89 49 49 12 111 -66 111 -27 0 -55 5 -63 10 -18 12 -17 12
130 14 l105 1 3 168 2 167 -134 0 -135 0 6 55 c5 51 4 55 -16 55 -20 0 -21 5
-21 85 l0 85 -178 0 c-98 0 -182 -3 -185 -7z m273 -248 c0 -8 -4 -15 -10 -15
-5 0 -10 7 -10 15 0 8 5 15 10 15 6 0 10 -7 10 -15z m24 -110 c-4 -8 -10 -12
-15 -9 -14 8 -10 24 6 24 9 0 12 -6 9 -15z m27 -98 c-1 -12 -15 -9 -19 4 -3 6
1 10 8 8 6 -3 11 -8 11 -12z m29 -97 c0 -5 -4 -10 -10 -10 -5 0 -10 5 -10 10
0 6 5 10 10 10 6 0 10 -4 10 -10z m20 -70 c0 -5 -4 -10 -10 -10 -5 0 -10 5
-10 10 0 6 5 10 10 10 6 0 10 -4 10 -10z m52 -77 c15 -3 41 0 58 5 17 6 28 7
25 3 -2 -5 -17 -12 -32 -16 -16 -3 -35 -13 -43 -20 -13 -11 -19 -10 -42 10
-32 27 -36 40 -10 30 9 -3 29 -9 44 -12z"/>
<path d="M286 1284 c-24 -23 -16 -49 14 -49 21 0 25 5 25 29 0 35 -16 43 -39
20z"/>
<path d="M1470 1261 c0 -5 5 -13 10 -16 6 -3 10 -2 10 4 0 5 -4 13 -10 16 -5
3 -10 2 -10 -4z"/>
<path d="M1430 1245 c0 -15 18 -40 24 -34 3 3 -1 14 -9 25 -8 10 -14 15 -15 9z"/>
<path d="M170 1150 c0 -5 17 -17 38 -27 20 -9 40 -19 45 -21 4 -2 7 5 7 16 0
13 -11 22 -39 30 -47 15 -51 15 -51 2z"/>
<path d="M224 599 c-3 -6 -2 -15 2 -19 12 -12 38 5 30 19 -9 14 -23 14 -32 0z"/>
<path d="M280 500 c0 -11 6 -20 14 -20 20 0 28 27 10 34 -23 9 -24 8 -24 -14z"/>
<path d="M330 425 c0 -8 9 -15 20 -15 11 0 20 7 20 15 0 8 -9 15 -20 15 -11 0
-20 -7 -20 -15z"/>
<path d="M416 372 c-3 -6 -1 -14 5 -17 15 -10 25 3 12 16 -7 7 -13 7 -17 1z"/>
<path d="M480 299 c0 -24 23 -21 28 4 2 10 -3 17 -12 17 -10 0 -16 -9 -16 -21z"/>
<path d="M670 216 c0 -15 24 -28 34 -19 13 14 5 33 -14 33 -11 0 -20 -6 -20
-14z"/>
<path d="M770 200 c0 -5 7 -10 15 -10 8 0 15 5 15 10 0 6 -7 10 -15 10 -8 0
-15 -4 -15 -10z"/>
<path d="M1520 655 c0 -8 9 -15 20 -15 24 0 27 15 4 24 -22 9 -24 8 -24 -9z"/>
<path d="M1360 395 c0 -10 7 -15 18 -13 21 4 19 22 -2 26 -10 2 -16 -3 -16
-13z"/>
<path d="M1090 230 c0 -5 7 -10 15 -10 8 0 15 5 15 10 0 6 -7 10 -15 10 -8 0
-15 -4 -15 -10z"/>
</g>
</svg>
